<?xml version="1.0" standalone="no"?>
<!DOCTYPE svg PUBLIC "-//W3C//DTD SVG 20010904//EN"
 "http://www.w3.org/TR/2001/REC-SVG-20010904/DTD/svg10.dtd">
<svg version="1.0" xmlns="http://www.w3.org/2000/svg"
 width="512.000000pt" height="512.000000pt" viewBox="0 0 512.000000 512.000000"
 preserveAspectRatio="xMidYMid meet">

<g transform="translate(0.000000,512.000000) scale(0.100000,-0.100000)"
 stroke="none">
<path d="M2700 5113 c-448 -30 -907 -216 -1246 -505 -83 -71 -104 -100 -104
-144 0 -37 51 -84 90 -84 41 0 60 11 155 90 283 235 607 379 982 435 131 19
405 19 540 0 571 -81 1092 -419 1393 -904 188 -303 283 -616 297 -971 12 -331
-50 -622 -196 -925 -111 -229 -262 -433 -444 -598 -92 -83 -108 -115 -87 -167
12 -29 62 -60 98 -60 11 0 42 17 69 39 64 51 247 241 304 316 238 311 391 683
440 1065 15 123 15 399 0 520 -147 1143 -1149 1971 -2291 1893z"/>
<path d="M417 4699 c-46 -27 -47 -39 -47 -733 l0 -654 -26 -6 c-14 -4 -37 -19
-50 -33 l-24 -26 0 -243 0 -244 -30 0 c-17 0 -46 -7 -66 -15 -68 -28 -65 58
-62 -1385 l3 -1300 28 -27 27 -28 663 -3 c484 -2 669 1 690 9 61 25 57 -68 57
1367 0 1175 -2 1315 -16 1337 -17 26 -61 45 -105 45 l-29 0 0 235 c0 185 -3
242 -14 264 -14 27 -53 51 -81 51 -13 0 -15 67 -15 481 0 315 -4 487 -10 500
-7 12 -171 99 -410 219 -403 202 -438 215 -483 189z m713 -954 l0 -435 -280 0
-280 0 0 575 0 575 280 -140 280 -140 0 -435z m100 -810 l0 -175 -385 0 -385
0 0 175 0 175 385 0 385 0 0 -175z m160 -1555 l0 -1180 -540 0 -540 0 0 1180
0 1180 540 0 540 0 0 -1180z"/>
<path d="M2594 4695 c-445 -65 -868 -314 -1137 -668 -61 -80 -46 -158 33 -176
51 -11 69 -1 130 70 171 202 324 327 529 429 376 189 804 218 1201 83 403
-137 740 -444 914 -832 150 -332 179 -715 81 -1060 -152 -537 -582 -956 -1120
-1090 -131 -32 -232 -44 -385 -43 -342 0 -662 107 -924 308 -132 101 -158 116
-191 109 -48 -9 -80 -48 -80 -96 0 -38 5 -47 60 -96 225 -203 575 -361 907
-408 796 -113 1583 356 1874 1118 77 202 108 379 108 617 0 184 -10 275 -49
430 -155 614 -646 1109 -1256 1265 -214 55 -485 70 -695 40z"/>
<path d="M3955 3751 c-11 -5 -429 -419 -930 -920 -898 -899 -910 -911 -910
-950 0 -67 59 -111 119 -91 37 12 1830 1801 1845 1841 27 73 -54 151 -124 120z"/>
<path d="M3362 2618 c-376 -376 -688 -691 -694 -702 -5 -10 -10 -35 -10 -54 0
-28 7 -43 31 -64 35 -31 68 -35 109 -14 15 8 332 320 705 693 511 512 677 685
678 703 4 81 -30 120 -104 120 -28 0 -98 -66 -715 -682z"/>
<path d="M1693 1148 c-22 -10 -53 -63 -53 -90 0 -32 40 -77 77 -87 26 -8 515
-11 1536 -11 l1498 0 -38 -72 c-69 -132 -243 -285 -378 -335 -135 -50 -52 -47
-1387 -53 l-1248 -5 -27 -27 c-21 -21 -28 -38 -28 -67 0 -48 24 -77 74 -92 25
-7 419 -9 1251 -7 l1215 4 97 26 c309 85 496 246 654 564 79 159 84 192 35
236 l-31 28 -1613 -1 c-1115 0 -1619 -4 -1634 -11z"/>
</g>
</svg>
