<?xml version="1.0" standalone="no"?>
<!DOCTYPE svg PUBLIC "-//W3C//DTD SVG 20010904//EN"
 "http://www.w3.org/TR/2001/REC-SVG-20010904/DTD/svg10.dtd">
<svg version="1.0" xmlns="http://www.w3.org/2000/svg"
 width="512.000000pt" height="512.000000pt" viewBox="0 0 512.000000 512.000000"
 preserveAspectRatio="xMidYMid meet">

<g transform="translate(0.000000,512.000000) scale(0.100000,-0.100000)"
 stroke="none">
<path d="M2160 4947 c-49 -16 -133 -102 -148 -153 -7 -23 -12 -92 -12 -153 0
-105 1 -113 25 -136 20 -21 34 -25 80 -25 l55 0 0 -114 0 -115 -191 -648
c-176 -596 -192 -656 -196 -743 -3 -68 15 -321 67 -905 45 -507 70 -836 67
-880 -4 -49 -24 -126 -68 -260 -56 -171 -63 -198 -62 -270 0 -105 27 -176 95
-250 59 -65 116 -101 190 -121 77 -20 919 -20 996 0 74 20 131 56 190 121 68
74 95 145 95 250 1 72 -6 99 -62 270 -44 134 -64 211 -68 260 -3 44 22 372 67
880 53 597 70 835 67 905 -5 87 -22 152 -196 743 l-191 648 0 115 0 114 55 0
c46 0 60 4 80 25 24 23 25 31 25 136 0 137 -11 177 -67 239 -71 79 -79 80
-497 79 -233 -1 -373 -5 -396 -12z m775 -172 c21 -20 25 -34 25 -80 l0 -55
-400 0 -400 0 0 55 c0 46 4 60 25 80 l24 25 351 0 351 0 24 -25z m-135 -421
l0 -125 191 -647 c157 -532 191 -661 196 -727 3 -54 -18 -340 -66 -886 -39
-444 -71 -835 -71 -870 0 -81 17 -153 87 -366 55 -170 56 -173 44 -227 -17
-75 -60 -132 -124 -162 l-52 -24 -446 0 -447 0 -53 28 c-67 34 -114 100 -124
170 -6 43 1 71 50 220 64 197 85 284 85 366 0 32 -32 421 -71 865 -48 546 -69
832 -66 886 5 66 39 195 196 727 l191 647 0 125 0 126 240 0 240 0 0 -126z"/>
<path d="M2185 2615 c-50 -49 -15 -135 55 -135 19 0 40 9 55 25 50 49 15 135
-55 135 -19 0 -40 -9 -55 -25z"/>
<path d="M2505 2615 c-50 -49 -15 -135 55 -135 41 0 80 39 80 80 0 19 -9 40
-25 55 -15 16 -36 25 -55 25 -19 0 -40 -9 -55 -25z"/>
<path d="M2825 2615 c-50 -49 -15 -135 55 -135 41 0 80 39 80 80 0 19 -9 40
-25 55 -15 16 -36 25 -55 25 -19 0 -40 -9 -55 -25z"/>
<path d="M2185 2295 c-50 -49 -15 -135 55 -135 19 0 40 9 55 25 16 15 25 36
25 55 0 19 -9 40 -25 55 -15 16 -36 25 -55 25 -19 0 -40 -9 -55 -25z"/>
<path d="M2505 2295 c-50 -49 -15 -135 55 -135 41 0 80 39 80 80 0 41 -39 80
-80 80 -19 0 -40 -9 -55 -25z"/>
<path d="M2825 2295 c-50 -49 -15 -135 55 -135 41 0 80 39 80 80 0 41 -39 80
-80 80 -19 0 -40 -9 -55 -25z"/>
<path d="M2185 1975 c-50 -49 -15 -135 55 -135 19 0 40 9 55 25 16 15 25 36
25 55 0 19 -9 40 -25 55 -15 16 -36 25 -55 25 -19 0 -40 -9 -55 -25z"/>
<path d="M2505 1975 c-50 -49 -15 -135 55 -135 41 0 80 39 80 80 0 41 -39 80
-80 80 -19 0 -40 -9 -55 -25z"/>
<path d="M2825 1975 c-50 -49 -15 -135 55 -135 41 0 80 39 80 80 0 41 -39 80
-80 80 -19 0 -40 -9 -55 -25z"/>
<path d="M2185 1655 c-50 -49 -15 -135 55 -135 19 0 40 9 55 25 16 15 25 36
25 55 0 19 -9 40 -25 55 -15 16 -36 25 -55 25 -19 0 -40 -9 -55 -25z"/>
<path d="M2505 1655 c-50 -49 -15 -135 55 -135 41 0 80 39 80 80 0 41 -39 80
-80 80 -19 0 -40 -9 -55 -25z"/>
<path d="M2825 1655 c-50 -49 -15 -135 55 -135 41 0 80 39 80 80 0 41 -39 80
-80 80 -19 0 -40 -9 -55 -25z"/>
<path d="M3705 4215 l-25 -24 0 -271 0 -271 25 -24 c20 -21 34 -25 80 -25 88
0 78 -20 -88 -189 -118 -120 -147 -155 -160 -195 -15 -43 -17 -101 -17 -416 0
-417 1 -426 77 -510 l45 -50 -45 -50 c-79 -88 -77 -65 -77 -750 0 -685 -2
-662 77 -750 l45 -50 -45 -50 c-100 -111 -101 -256 -2 -355 75 -75 72 -75 645
-75 573 0 570 0 645 75 99 99 98 244 -2 355 l-45 50 45 50 c79 88 77 65 77
750 0 685 2 662 -77 750 l-45 50 45 50 c76 84 77 93 77 510 0 315 -2 373 -17
416 -13 40 -42 75 -160 195 -166 169 -176 189 -88 189 46 0 60 4 80 25 l25 24
0 271 0 271 -25 24 -24 25 -511 0 -511 0 -24 -25z m935 -295 l0 -160 -400 0
-400 0 0 160 0 160 400 0 400 0 0 -160z m-160 -376 l0 -57 102 -103 102 -104
-444 0 -444 0 102 104 102 103 0 57 0 56 240 0 240 0 0 -56z m320 -744 l0
-320 -560 0 -560 0 0 320 0 320 560 0 560 0 0 -320z m-139 -506 c-39 -49 -29
-77 59 -169 l80 -84 0 -601 0 -601 -57 -60 -56 -59 -344 0 -343 0 0 -80 0 -80
343 0 344 0 56 -59 c68 -71 74 -105 28 -152 l-29 -29 -502 0 -502 0 -29 29
c-50 51 -42 79 51 176 65 68 80 89 80 115 0 26 -15 47 -80 115 l-80 84 0 601
0 601 80 84 c88 92 98 120 59 169 l-20 26 441 0 441 0 -20 -26z"/>
<path d="M3926 2005 c-73 -51 -72 -47 -33 -112 87 -143 121 -272 121 -453 0
-180 -35 -310 -120 -451 -19 -31 -34 -59 -34 -62 0 -4 28 -25 62 -48 l61 -42
20 24 c29 36 102 186 125 259 37 115 46 182 46 320 0 138 -9 205 -46 320 -33
103 -126 281 -146 279 -4 0 -29 -15 -56 -34z"/>
<path d="M4471 2011 c-12 -16 -39 -65 -60 -108 -122 -246 -143 -526 -59 -783
25 -78 92 -217 123 -256 l22 -28 57 39 c32 22 60 43 62 47 3 5 -10 34 -29 66
-86 142 -121 271 -121 452 0 180 35 310 120 451 19 31 34 59 34 62 0 6 -96 76
-115 83 -7 3 -22 -8 -34 -25z"/>
<path d="M624 3326 c-133 -43 -224 -172 -224 -315 0 -67 30 -191 60 -250 l20
-41 -94 0 c-74 0 -98 -4 -115 -18 -17 -13 -33 -59 -66 -192 l-45 -175 0 -895
0 -895 45 -175 c33 -133 49 -179 66 -192 20 -17 64 -18 609 -18 545 0 589 1
609 18 17 13 33 59 66 192 l45 175 0 895 0 895 -45 175 c-33 133 -49 179 -66
192 -19 16 -48 18 -275 18 l-253 0 24 53 c60 128 69 285 23 383 -29 63 -96
130 -156 156 -58 26 -171 33 -228 14z m184 -173 c31 -23 58 -60 67 -90 l6 -23
-161 0 c-144 0 -161 2 -156 16 3 9 6 19 6 24 0 17 55 73 85 86 40 19 120 12
153 -13z m40 -300 c-7 -16 -27 -52 -45 -80 -32 -52 -33 -53 -82 -53 -48 0 -51
2 -79 43 -17 23 -37 59 -45 80 l-16 37 139 0 140 0 -12 -27z m550 -373 l20
-80 -538 0 -538 0 20 80 20 80 498 0 498 0 20 -80z m-281 -337 c-13 -214 -60
-310 -262 -543 -77 -89 -144 -212 -181 -336 -26 -85 -28 -100 -32 -356 l-4
-268 -159 0 -159 0 0 800 0 800 401 0 402 0 -6 -97z m320 -160 c-5 -285 -10
-319 -73 -448 -34 -70 -66 -113 -189 -255 -125 -144 -201 -336 -212 -532 l-6
-108 -79 0 -80 0 5 258 c5 284 10 318 73 447 34 70 66 113 189 255 78 90 156
240 186 355 11 44 23 126 26 183 l6 102 79 0 80 0 -5 -257z m3 -993 l0 -350
-161 0 -162 0 6 98 c10 164 63 306 155 415 26 31 72 85 102 121 30 36 56 66
58 66 1 0 2 -157 2 -350z m-42 -590 l-20 -80 -498 0 -498 0 -20 80 -20 80 538
0 538 0 -20 -80z"/>
</g>
</svg>
