<?xml version="1.0" encoding="UTF-8" standalone="no"?>
<!-- Created with Inkscape (http://www.inkscape.org/) -->

<svg
   width="106.1578mm"
   height="111.01698mm"
   viewBox="0 0 106.1578 111.01698"
   version="1.1"
   id="svg1"
   xml:space="preserve"
   xmlns:inkscape="http://www.inkscape.org/namespaces/inkscape"
   xmlns:sodipodi="http://sodipodi.sourceforge.net/DTD/sodipodi-0.dtd"
   xmlns="http://www.w3.org/2000/svg"
   xmlns:svg="http://www.w3.org/2000/svg"><sodipodi:namedview
     id="namedview1"
     pagecolor="#505050"
     bordercolor="#eeeeee"
     borderopacity="1"
     inkscape:showpageshadow="0"
     inkscape:pageopacity="0"
     inkscape:pagecheckerboard="0"
     inkscape:deskcolor="#505050"
     inkscape:document-units="mm" /><defs
     id="defs1" /><g
     inkscape:label="Layer 1"
     inkscape:groupmode="layer"
     id="layer1"
     transform="translate(-81.594217,-61.655359)"><path
       style="fill:#000000"
       d="m 82.966544,172.47772 c -0.238803,-0.0977 -0.629572,-0.39487 -0.868376,-0.66028 -0.42881,-0.47659 -0.4349,-0.8294 -0.491677,-28.48407 -0.03925,-19.1184 0.01511,-28.2711 0.171345,-28.85133 0.274822,-1.02061 0.95042,-1.51419 2.277311,-1.66375 l 0.973791,-0.10976 v -5.25887 -5.25886 l 0.524232,-0.56566 c 0.288327,-0.31111 0.776789,-0.62904 1.08547,-0.70652 l 0.561238,-0.14086 V 86.574674 c 0,-15.1557 0.01299,-15.35193 1.052819,-15.90843 0.241062,-0.12901 0.738271,-0.23457 1.104908,-0.23457 0.875676,0 17.920105,8.5032 18.239065,9.09918 0.14907,0.27854 0.22714,4.00501 0.22714,10.84195 v 10.417526 l 0.62402,0.13706 c 0.34321,0.0754 0.85609,0.3839 1.13974,0.68559 0.5096,0.54202 0.5165,0.61124 0.58062,5.82372 l 0.0649,5.27518 1.04934,0.1392 c 0.71638,0.095 1.22965,0.31951 1.61759,0.70745 l 0.56824,0.56824 v 28.53253 c 0,19.15418 -0.0735,28.66982 -0.22353,28.95021 -0.57874,1.08139 -0.47577,1.07443 -15.667824,1.05968 -7.796891,-0.008 -14.37155,-0.0937 -14.610354,-0.19147 z m 26.323536,-29.69947 0.0552,-25.67137 h -11.724 -11.723966 v 25.72753 25.72753 l 11.668803,-0.0562 11.668803,-0.0562 z m -3.20302,-33.81239 v -3.79915 h -8.466669 -8.466667 v 3.79915 3.79914 h 8.466667 8.466669 z m -2.38804,-17.583866 v -9.44284 l -6.078629,-3.04081 -6.078633,-3.04082 v 12.48366 12.483646 h 6.078633 6.078629 z m 12.63746,74.548426 c -1.51487,-0.44816 -1.9426,-2.30316 -0.79571,-3.45089 l 0.54233,-0.54273 27.07763,-0.11571 c 29.10343,-0.12436 27.14693,-0.0485 30.21868,-1.17193 2.89898,-1.06026 6.59477,-4.36076 8.10835,-7.2411 0.43961,-0.8366 0.7993,-1.58006 0.7993,-1.65216 0,-0.0721 -14.87634,-0.13107 -33.05853,-0.13107 -36.5114,0 -33.73799,0.11185 -34.23052,-1.38051 -0.28037,-0.84955 -0.0746,-1.55855 0.63904,-2.20154 0.47714,-0.42992 0.82738,-0.43474 35.62274,-0.49041 l 35.14086,-0.0562 0.67859,0.60632 c 1.04319,0.93209 0.93424,1.66828 -0.75796,5.12192 -3.35187,6.84085 -7.50117,10.41846 -14.21183,12.2537 l -2.0882,0.57109 -26.48547,0.0462 c -16.67007,0.0291 -26.75001,-0.032 -27.1993,-0.16497 z m 19.05827,-19.92448 c -4.10074,-0.65505 -7.40594,-1.68427 -11.01144,-3.42891 -3.97921,-1.92546 -8.93191,-5.47245 -9.41484,-6.74264 -0.48475,-1.275 0.50707,-2.74939 1.84951,-2.74939 0.77245,0 1.06697,0.17721 4.00665,2.41086 4.20454,3.19472 9.33945,5.37784 14.78464,6.28574 2.48738,0.41472 7.90321,0.46641 10.206,0.0974 7.68696,-1.23182 14.19314,-4.59157 19.44202,-10.03975 6.24845,-6.48568 9.45146,-14.41899 9.45409,-23.41612 0.003,-9.309096 -3.47116,-17.573976 -10.15773,-24.166766 -13.03979,-12.85692 -34.21397,-12.83556 -47.16296,0.0476 -1.27215,1.26568 -2.77845,2.86297 -3.34732,3.54953 -0.97836,1.18075 -1.08707,1.24829 -2.0091,1.24829 -1.25735,0 -2.03952,-0.74906 -2.03952,-1.95317 0,-0.96271 1.25886,-2.73504 3.73166,-5.25376 10.48277,-10.67742 26.20507,-14.30174 40.12133,-9.2488 13.22347,4.80139 22.56045,16.23891 24.77591,30.349746 0.40805,2.59896 0.35815,8.69526 -0.0933,11.39744 -1.35182,8.09157 -4.94487,15.10027 -10.68283,20.83824 -5.66637,5.66636 -12.46703,9.20411 -20.51261,10.67078 -2.81049,0.51235 -9.04314,0.56648 -11.94017,0.10371 z m 33.28856,-1.45957 c -0.80121,-0.39516 -1.26911,-1.3527 -1.06276,-2.17488 0.0852,-0.33941 1.33281,-1.75259 3.02239,-3.42345 8.27648,-8.18479 12.5162,-17.84088 12.87837,-29.3309 0.48561,-15.406076 -7.43848,-29.816426 -20.81201,-37.847666 -4.56098,-2.73902 -10.19771,-4.73355 -15.76902,-5.57981 -2.85405,-0.43351 -8.84507,-0.42433 -11.87437,0.0182 -8.17375,1.19405 -15.76062,4.60669 -21.7062,9.76366 -0.71641,0.62138 -1.51595,1.24104 -1.77676,1.37702 -1.70998,0.89157 -3.622,-0.80963 -2.89166,-2.57282 0.1475,-0.35609 1.16742,-1.38288 2.29599,-2.31145 6.99492,-5.75533 14.93605,-9.22536 24.08183,-10.52305 2.95928,-0.41989 9.69529,-0.36849 12.67912,0.0968 10.29745,1.60558 18.92855,5.99315 26.3037,13.37131 4.06928,4.07095 6.60881,7.59528 9.00601,12.49846 3.2071,6.55976 4.68579,12.953986 4.69404,20.298296 0.006,5.76354 -0.63035,9.84552 -2.33693,14.97948 -2.39469,7.20405 -6.28318,13.36794 -11.87969,18.83124 -3.00998,2.93834 -3.5026,3.19517 -4.85205,2.52962 z m -30.57488,-10.49429 c -1.08922,-0.44581 -1.59249,-1.9215 -1.01311,-2.97062 0.12339,-0.22341 6.90141,-7.0737 15.06229,-15.22287 14.29226,-14.27177 14.86751,-14.81667 15.64181,-14.81667 0.57628,0 0.98598,0.16903 1.44712,0.59701 0.62867,0.58348 0.742,0.91162 0.69116,2.00111 -0.0189,0.4044 -3.55058,4.0687 -14.40748,14.94839 -7.91036,7.92697 -14.76348,14.69532 -15.22915,15.04078 -0.85909,0.63731 -1.4094,0.74344 -2.19264,0.42287 z m -11.53328,-0.16246 c -0.80718,-0.15677 -1.48249,-1.08471 -1.48249,-2.03707 0,-0.85177 0.20445,-1.0651 19.85177,-20.71329 13.90226,-13.902886 20.03059,-19.891926 20.44844,-19.983706 0.85291,-0.18733 1.74419,0.31603 2.19597,1.24018 0.35041,0.71679 0.3581,0.8704 0.0761,1.51966 -0.33788,0.77804 -39.36127,39.907726 -39.79931,39.907726 -0.13793,0 -0.3809,0.0351 -0.53991,0.0781 -0.15902,0.0429 -0.49679,0.0377 -0.75061,-0.0116 z"
       id="path1" /></g></svg>
