<?xml version="1.0" standalone="no"?>
<!DOCTYPE svg PUBLIC "-//W3C//DTD SVG 20010904//EN"
 "http://www.w3.org/TR/2001/REC-SVG-20010904/DTD/svg10.dtd">
<svg version="1.0" xmlns="http://www.w3.org/2000/svg"
 width="512.000000pt" height="512.000000pt" viewBox="0 0 512.000000 512.000000"
 preserveAspectRatio="xMidYMid meet">

<g transform="translate(0.000000,512.000000) scale(0.100000,-0.100000)"
  stroke="none">
<path d="M1765 5051 c-22 -10 -55 -34 -72 -54 -54 -62 -58 -91 -40 -307 l17
-191 -37 -111 -37 -111 -73 152 c-68 140 -77 154 -120 181 -112 72 -251 33
-304 -85 -31 -67 -24 -115 41 -310 l60 -179 -11 -116 c-14 -149 -2 -380 28
-497 l5 -23 -184 0 -184 0 -63 168 c-91 242 -131 322 -187 371 -97 85 -190
110 -406 111 -121 0 -162 -8 -184 -38 -18 -23 -17 -62 2 -87 14 -18 30 -20
193 -25 167 -6 181 -7 233 -33 31 -15 68 -43 84 -64 15 -20 79 -171 146 -345
65 -170 123 -318 129 -329 27 -51 107 -43 130 12 10 24 9 37 -4 69 l-15 40
2029 0 2030 0 -3 -627 -3 -628 -23 -51 c-29 -64 -102 -137 -167 -165 -39 -17
-197 -43 -720 -116 -368 -51 -913 -127 -1210 -169 -827 -115 -819 -114 -900
-104 -175 22 -337 129 -419 277 -15 25 -126 307 -248 626 -122 319 -230 590
-241 603 -26 34 -79 33 -106 -2 -12 -15 -21 -34 -21 -43 0 -30 450 -1194 487
-1260 20 -35 69 -99 111 -142 l75 -79 -112 -267 -112 -268 -87 0 c-77 0 -95
-4 -154 -32 -125 -59 -204 -160 -229 -294 -31 -171 65 -350 228 -427 51 -24
70 -27 158 -27 88 0 107 3 158 27 32 15 76 41 97 58 46 37 102 119 122 180
l15 45 1227 5 1228 5 20 25 c14 17 18 33 14 54 -13 66 86 61 -1266 64 -1161 2
-1230 3 -1230 20 0 36 -52 125 -105 182 l-56 58 108 260 107 259 70 -23 c99
-34 207 -45 313 -33 87 10 256 33 798 109 154 22 444 62 645 90 1154 160 1222
171 1283 195 120 49 223 156 270 283 22 56 22 68 25 746 l3 689 -22 24 c-22
22 -27 23 -201 23 -136 0 -178 3 -178 13 0 6 19 64 42 127 36 101 41 126 42
200 0 95 -19 155 -73 233 l-31 46 125 140 c68 78 127 152 131 167 10 39 -23
78 -69 82 -33 3 -41 -2 -89 -55 -29 -31 -72 -78 -96 -103 l-42 -45 14 40 c8
22 48 135 90 252 42 116 76 220 76 230 -1 47 -58 78 -106 58 -28 -12 -36 -28
-114 -246 -46 -129 -88 -245 -94 -259 -8 -20 -11 3 -16 111 -4 116 -8 140 -24
158 -25 28 -86 29 -111 1 -17 -18 -18 -36 -12 -219 l5 -199 -37 -6 c-62 -10
-157 -64 -204 -116 l-45 -49 -4 82 c-5 100 -21 136 -99 221 l-59 64 0 154 c0
140 -2 158 -22 198 -17 33 -35 51 -68 68 -41 21 -56 23 -162 20 -129 -3 -151
-12 -195 -78 -21 -31 -23 -44 -23 -187 0 -94 -4 -163 -11 -176 -6 -12 -32 -43
-57 -69 l-46 -48 -187 0 -187 0 -4 136 c-3 135 -3 136 -31 160 l-28 24 -388 0
-387 0 -33 178 c-18 97 -37 194 -42 215 -21 80 -111 147 -199 147 -25 0 -63
-9 -85 -19z m125 -146 c15 -19 41 -138 32 -146 -4 -4 -33 -11 -64 -16 l-57
-10 -7 74 c-5 63 -4 77 11 93 21 24 67 26 85 5z m1878 -372 l3 -83 -86 0 -85
0 0 85 0 86 83 -3 82 -3 3 -82z m-1792 -10 c16 -77 18 -152 21 -606 l4 -517
-313 2 -313 3 -12 55 c-28 122 -36 278 -24 445 11 140 10 165 -4 204 -8 24
-13 46 -10 49 6 7 129 61 131 59 1 -1 63 -132 138 -291 75 -159 143 -300 152
-313 40 -62 134 -37 134 36 0 11 -40 106 -89 211 l-90 190 26 111 c13 62 40
157 60 212 27 79 34 113 31 156 l-3 56 65 11 c36 6 68 12 71 13 4 0 15 -38 25
-86z m-665 -33 c17 -10 85 -128 77 -135 -2 -2 -29 -14 -60 -28 l-57 -25 -20
61 c-27 78 -26 102 1 121 26 19 33 19 59 6z m1497 -357 l2 -243 -330 0 -330 0
0 238 c0 131 3 242 7 245 4 4 151 6 327 5 l321 -3 3 -242z m983 126 c11 -23
47 -70 80 -105 l59 -64 -2 -342 -3 -343 -82 -3 -83 -3 0 134 c0 152 -13 213
-60 269 -41 49 -104 78 -189 85 l-71 6 0 104 0 105 60 62 c33 34 66 79 75 99
l15 37 90 0 90 0 21 -41z m-506 -529 l0 -325 -162 -3 -163 -2 0 330 0 330 163
-2 162 -3 0 -325z m1225 233 c71 -29 133 -110 146 -192 l6 -40 -52 17 c-46 15
-54 15 -78 1 -15 -8 -31 -27 -37 -42 -14 -42 10 -77 71 -101 l52 -21 -32 -90
-32 -90 -237 -3 -237 -2 0 68 c0 65 27 173 49 195 5 5 30 2 59 -7 46 -16 53
-16 81 -1 37 19 50 58 30 93 -15 28 -26 35 -82 57 l-37 15 19 38 c56 109 190
154 311 105z m-1705 -393 l0 -165 -325 0 -325 0 -3 155 c-1 85 0 160 2 167 4
11 70 13 328 11 l323 -3 0 -165z m749 156 c48 -20 57 -52 54 -196 l-3 -125
-82 -3 -83 -3 0 171 0 170 40 0 c22 0 55 -6 74 -14z m-2167 -3065 c51 -25 110
-93 123 -140 33 -120 -18 -243 -123 -297 -80 -42 -201 -25 -274 39 -134 117
-90 349 78 410 56 21 142 16 196 -12z"/>
<path d="M2380 4203 c-34 -13 -50 -37 -50 -74 0 -58 23 -69 150 -69 127 0 150
11 150 69 0 62 -24 76 -139 78 -53 1 -103 0 -111 -4z"/>
<path d="M1244 510 c-48 -19 -52 -105 -5 -129 78 -42 154 64 85 118 -28 22
-46 25 -80 11z"/>
<path d="M1551 3054 c-12 -15 -21 -33 -21 -40 0 -7 86 -327 191 -711 136 -495
198 -705 212 -720 29 -33 79 -31 106 3 12 15 21 32 21 38 0 6 -86 326 -191
711 -135 493 -198 707 -212 723 -29 32 -79 30 -106 -4z"/>
<path d="M2240 3060 c-11 -11 -20 -31 -20 -44 0 -13 49 -322 109 -687 106
-640 111 -665 136 -686 14 -13 32 -23 40 -23 29 0 64 24 73 49 14 40 -208
1363 -233 1391 -24 26 -78 27 -105 0z"/>
<path d="M2929 3061 c-21 -17 -24 -27 -22 -78 5 -136 64 -1162 69 -1201 7 -54
33 -82 77 -82 52 0 72 29 70 99 -6 144 -64 1161 -69 1199 -3 24 -14 52 -25 63
-24 24 -70 24 -100 0z"/>
<path d="M3510 3060 c-20 -20 -20 -33 -20 -629 0 -565 1 -610 18 -629 9 -12
29 -24 44 -28 22 -5 34 0 58 24 l30 31 -2 604 c-3 579 -4 606 -22 626 -25 27
-79 28 -106 1z"/>
<path d="M4020 3060 c-20 -20 -20 -33 -20 -599 l0 -580 26 -20 c33 -26 65 -27
95 -2 l24 19 3 574 c2 570 2 575 -18 601 -27 34 -80 37 -110 7z"/>
<path d="M4510 3058 c-20 -21 -20 -32 -20 -549 0 -517 0 -527 21 -553 27 -34
71 -35 104 -1 l25 24 0 524 c0 515 0 525 -21 551 -27 34 -79 36 -109 4z"/>
<path d="M4622 825 c-111 -31 -211 -117 -260 -223 -22 -49 -26 -71 -27 -157 0
-91 3 -106 31 -165 39 -83 111 -155 194 -194 59 -28 74 -31 165 -31 93 0 105
2 167 33 84 41 167 128 199 209 29 74 32 204 6 278 -34 99 -134 201 -234 238
-66 25 -175 31 -241 12z m223 -169 c111 -65 154 -198 101 -312 -53 -114 -174
-168 -300 -133 -53 15 -138 100 -154 155 -40 138 30 270 168 315 46 15 137 3
185 -25z"/>
<path d="M4675 495 c-14 -13 -25 -36 -25 -50 0 -33 42 -75 75 -75 33 0 75 42
75 75 0 33 -42 75 -75 75 -14 0 -37 -11 -50 -25z"/>
</g>
</svg>
