<?xml version="1.0" standalone="no"?>
<!DOCTYPE svg PUBLIC "-//W3C//DTD SVG 20010904//EN"
 "http://www.w3.org/TR/2001/REC-SVG-20010904/DTD/svg10.dtd">
<svg version="1.0" xmlns="http://www.w3.org/2000/svg"
 width="512.000000pt" height="512.000000pt" viewBox="0 0 512.000000 512.000000"
 preserveAspectRatio="xMidYMid meet">

<g transform="translate(0.000000,512.000000) scale(0.100000,-0.100000)"
 stroke="none">
<path d="M3540 5024 c-689 -85 -1200 -654 -1200 -1339 0 -218 44 -406 140
-600 71 -143 157 -261 271 -370 114 -110 198 -168 363 -250 105 -53 147 -80
170 -108 l31 -39 1 -241 c0 -215 3 -251 22 -319 108 -392 438 -648 833 -648
338 0 634 191 778 502 81 173 76 99 76 1228 0 922 -1 1012 -18 1092 -94 464
-406 837 -842 1007 -144 57 -272 81 -445 86 -80 2 -161 1 -180 -1z m323 -149
c451 -68 828 -389 968 -824 59 -186 60 -196 57 -1254 l-3 -962 -27 -80 c-69
-200 -190 -340 -373 -431 -106 -52 -197 -74 -315 -74 -118 0 -209 22 -318 76
-146 71 -273 203 -337 349 -53 120 -59 163 -60 420 0 225 -1 243 -22 287 -35
76 -98 131 -220 189 -162 77 -265 149 -379 263 -236 235 -354 520 -354 851 0
735 656 1300 1383 1190z"/>
<path d="M3513 4626 c-314 -60 -587 -277 -708 -564 -60 -142 -70 -199 -69
-382 0 -136 4 -179 22 -242 43 -158 120 -294 235 -414 85 -90 180 -156 327
-228 177 -86 264 -163 329 -292 54 -108 64 -173 56 -394 -7 -214 0 -261 51
-362 32 -63 114 -151 172 -185 147 -86 351 -84 491 6 106 68 188 187 211 306
8 44 10 324 8 1015 l-4 955 -23 80 c-98 342 -356 598 -691 685 -107 28 -302
36 -407 16z m367 -149 c211 -58 374 -175 489 -351 51 -78 80 -144 109 -251 15
-54 17 -155 17 -1025 l0 -965 -26 -55 c-32 -67 -87 -123 -154 -158 -67 -34
-180 -42 -254 -17 -68 22 -152 99 -188 173 l-28 57 0 250 c0 245 -1 252 -27
330 -69 204 -197 341 -418 448 -143 69 -223 123 -301 204 -112 116 -179 241
-214 399 -24 106 -17 300 15 399 99 310 349 528 665 578 57 10 260 -1 315 -16z"/>
<path d="M3591 4049 c-107 -21 -195 -88 -243 -187 -30 -61 -33 -75 -33 -157 0
-108 20 -159 91 -235 176 -188 482 -125 578 120 11 28 18 72 18 115 0 173
-117 313 -286 344 -66 12 -64 12 -125 0z m125 -144 c97 -29 163 -133 145 -232
-37 -200 -298 -235 -391 -53 -48 93 -8 219 85 267 67 35 94 38 161 18z"/>
<path d="M615 4422 c-266 -92 -499 -460 -522 -822 -18 -298 97 -556 307 -686
l62 -38 -7 -63 c-4 -35 -1 -96 5 -140 39 -256 197 -428 465 -505 68 -19 103
-23 240 -23 134 0 173 4 241 23 309 84 571 286 639 493 36 108 7 240 -77 350
l-35 45 39 64 c92 153 128 380 93 582 -39 226 -141 427 -295 579 -209 207
-424 209 -633 6 -26 -26 -51 -47 -55 -47 -4 0 -29 23 -57 51 -129 129 -278
177 -410 131z m220 -157 c108 -63 226 -212 292 -369 52 -123 73 -223 73 -351
0 -161 6 -151 -108 -158 -249 -17 -468 -139 -558 -311 -16 -31 -32 -56 -35
-56 -3 0 -27 14 -52 31 -90 59 -158 164 -194 299 -25 91 -24 299 1 395 44 166
121 308 228 421 94 98 169 138 251 131 37 -3 73 -14 102 -32z m713 10 c104
-48 235 -200 303 -352 16 -34 41 -102 56 -150 22 -76 26 -107 27 -223 0 -98
-4 -153 -17 -200 -18 -69 -73 -190 -86 -190 -4 0 -45 25 -90 54 -97 64 -202
110 -321 142 l-84 22 2 133 c4 204 -33 360 -128 536 l-40 74 53 53 c121 121
217 151 325 101z m-242 -1036 c253 -44 518 -216 595 -384 54 -117 -10 -256
-174 -379 -166 -126 -366 -196 -557 -196 -320 0 -532 152 -571 409 -40 267
120 487 396 545 84 17 229 20 311 5z"/>
<path d="M2135 2125 c-283 -46 -538 -145 -775 -303 -196 -131 -369 -324 -415
-462 -9 -28 -20 -48 -23 -46 -4 2 -68 39 -142 82 -185 107 -228 124 -320 124
-124 0 -234 -58 -299 -157 -53 -79 -59 -118 -67 -410 -6 -237 -5 -275 10 -328
24 -84 77 -157 147 -204 70 -47 142 -65 234 -59 63 4 83 12 274 110 l206 106
175 -110 c396 -249 693 -356 1040 -375 329 -17 760 104 1128 318 133 77 142
84 142 124 0 28 -20 53 -155 193 l-155 160 160 152 c88 84 163 163 166 175 8
34 -10 60 -74 103 -166 113 -385 222 -591 296 l-113 41 -18 71 c-18 71 -49
140 -89 199 -41 61 -137 147 -196 176 -75 37 -135 42 -250 24z m172 -140 c84
-35 174 -139 215 -248 l19 -49 -33 5 c-18 3 -84 11 -145 18 -256 29 -608 -39
-908 -174 -95 -43 -316 -158 -342 -179 -25 -20 -13 9 27 70 22 33 78 96 123
139 222 209 553 366 884 417 116 18 118 18 160 1z m203 -435 c147 -30 321 -90
477 -165 138 -66 293 -154 293 -166 0 -3 -68 -70 -150 -149 -83 -78 -153 -153
-156 -166 -8 -33 2 -47 160 -210 101 -106 133 -144 123 -152 -24 -20 -273
-140 -363 -175 -126 -50 -203 -63 -285 -48 -294 51 -472 381 -383 713 7 29 14
61 14 71 0 52 -95 79 -124 34 -18 -26 -46 -139 -46 -184 0 -17 -4 -34 -8 -37
-5 -3 -68 13 -141 35 -151 44 -223 49 -286 20 -50 -22 -109 -86 -125 -136 -18
-55 -9 -287 14 -340 37 -88 121 -144 215 -145 54 0 113 20 328 113 l82 36 30
-47 c35 -54 128 -148 185 -185 l38 -25 -48 -8 c-78 -11 -271 3 -406 30 -264
54 -458 142 -804 368 -83 54 -161 98 -173 98 -12 0 -117 -50 -234 -112 -192
-102 -218 -113 -274 -116 -53 -4 -68 0 -113 24 -45 25 -100 83 -100 106 0 5
45 8 100 8 87 0 103 3 120 20 25 25 26 61 1 91 -18 22 -28 24 -131 27 l-111 4
3 46 3 47 240 2 c230 3 241 4 258 24 23 29 22 72 -4 95 -19 17 -41 19 -255 22
l-234 3 0 50 0 49 109 0 c102 0 111 2 125 22 21 30 20 61 -2 89 -17 20 -31 23
-118 28 l-99 6 46 46 c55 55 101 73 178 67 52 -4 78 -16 269 -126 117 -67 221
-122 232 -122 11 0 87 39 168 87 449 264 782 369 1137 358 68 -2 166 -13 225
-25z m-600 -742 l145 -43 -74 -11 c-57 -9 -79 -17 -93 -34 -25 -31 -23 -62 6
-89 23 -22 31 -23 103 -17 l78 6 -150 -64 c-156 -68 -199 -77 -240 -50 -34 22
-45 70 -45 192 0 96 2 105 25 127 34 35 75 32 245 -17z"/>
<path d="M2651 1349 c-84 -33 -125 -101 -119 -194 3 -49 10 -70 31 -99 69 -90
201 -103 281 -28 105 98 76 261 -56 317 -41 17 -100 19 -137 4z m104 -149 c24
-27 13 -68 -22 -76 -34 -9 -57 6 -61 40 -6 53 47 76 83 36z"/>
</g>
</svg>
