<?xml version="1.0" standalone="no"?>
<!DOCTYPE svg PUBLIC "-//W3C//DTD SVG 20010904//EN"
 "http://www.w3.org/TR/2001/REC-SVG-20010904/DTD/svg10.dtd">
<svg version="1.0" xmlns="http://www.w3.org/2000/svg"
 width="512.000000pt" height="512.000000pt" viewBox="0 0 512.000000 512.000000"
 preserveAspectRatio="xMidYMid meet">

<g transform="translate(0.000000,512.000000) scale(0.100000,-0.100000)"
 stroke="none">
<path d="M1661 5016 c-49 -18 -106 -70 -130 -119 -19 -40 -21 -60 -21 -275 0
-207 -3 -246 -25 -355 -37 -186 -74 -608 -75 -849 l0 -48 -648 -2 -649 -3 -37
-29 c-67 -51 -76 -85 -76 -296 l0 -185 46 -110 c26 -60 57 -152 71 -205 l24
-95 -3 -730 -3 -730 -27 -95 c-14 -52 -44 -137 -67 -189 l-41 -94 0 -176 c0
-97 5 -192 10 -211 12 -43 72 -103 119 -119 48 -16 2284 -16 2332 0 43 15 97
65 115 106 10 23 14 79 14 193 l0 160 1139 2 1139 3 43 30 c24 17 57 50 74 74
l30 43 6 311 c4 172 12 362 18 422 14 148 48 654 63 955 16 334 17 1209 0
1415 -15 185 -44 404 -67 500 -11 49 -15 124 -15 292 0 140 -4 240 -11 264
-17 55 -65 108 -123 135 l-51 24 -1570 -1 c-1207 0 -1578 -3 -1604 -13z m371
-232 c4 -86 7 -99 27 -115 30 -25 76 -24 101 1 17 17 20 33 20 115 l0 95 215
0 215 0 0 -90 c0 -83 2 -93 25 -115 30 -31 71 -32 102 -3 21 19 23 30 23 115
l0 93 215 0 215 0 0 -89 c0 -106 18 -141 75 -141 57 0 75 35 75 141 l0 89 215
0 215 0 0 -95 c0 -82 3 -98 20 -115 25 -25 71 -26 101 -1 22 17 24 29 27 115
l4 96 209 0 209 0 0 -74 c0 -114 22 -156 82 -156 52 0 63 20 68 127 l5 98 163
3 c161 2 163 2 187 -22 25 -25 25 -26 25 -221 l0 -195 -715 0 c-609 0 -720 -2
-744 -15 -46 -23 -54 -66 -20 -109 l20 -26 739 0 738 0 16 -87 c39 -222 55
-430 63 -843 9 -499 -28 -1388 -84 -1992 l-6 -68 -1214 0 -1214 0 3 598 c3
536 5 603 21 657 10 32 20 61 23 64 2 3 17 -5 32 -17 15 -12 55 -41 89 -64
l63 -42 -25 -26 c-30 -31 -55 -90 -55 -128 0 -95 195 -323 355 -416 225 -131
516 -156 790 -69 364 115 649 403 761 768 26 83 28 103 28 260 0 159 -2 175
-28 255 -50 152 -161 335 -237 390 -67 48 -140 48 -212 -2 -15 -11 -71 -72
-125 -136 -53 -65 -126 -148 -162 -185 l-65 -68 -120 36 c-361 110 -651 269
-935 514 -100 86 -145 111 -202 111 -54 0 -99 -27 -133 -78 -41 -63 -93 -191
-112 -275 l-16 -77 -311 2 -311 3 3 155 c4 258 29 545 63 708 l10 52 744 0
744 0 20 26 c34 43 26 86 -20 109 -24 13 -136 15 -749 15 l-720 0 0 195 c0
259 -12 245 208 245 l160 0 4 -96z m528 -1215 c344 -295 771 -508 1182 -589
32 -6 60 -15 63 -21 18 -28 -93 -199 -181 -278 -120 -106 -265 -156 -454 -155
-226 1 -403 67 -570 212 l-45 40 18 36 c14 31 17 66 17 224 0 161 -3 193 -19
228 -29 64 -79 96 -159 103 -64 6 -67 7 -64 31 6 68 84 250 105 250 7 0 55
-36 107 -81z m1684 -237 c113 -171 151 -298 143 -482 -6 -140 -42 -262 -114
-388 -105 -181 -241 -310 -418 -397 -174 -85 -238 -100 -435 -100 -152 1 -171
3 -245 28 -44 14 -109 43 -145 64 -73 43 -234 198 -265 256 -17 33 -18 38 -4
52 8 9 36 24 62 33 46 18 50 18 120 -1 101 -28 342 -29 442 -3 124 32 262 106
348 186 120 112 227 289 227 375 0 40 -24 89 -57 116 l-30 24 72 80 c39 44 98
113 130 153 31 40 65 76 74 81 24 14 45 -3 95 -77z m-3654 -157 c0 -54 25 -85
69 -85 45 0 72 29 78 83 l6 47 238 0 239 0 0 -39 c0 -53 31 -91 75 -91 44 0
75 38 75 91 l0 39 239 0 238 0 7 -50 c7 -55 32 -80 78 -80 43 0 68 32 68 85
l0 45 218 -2 217 -3 3 -137 3 -138 -1146 0 -1145 0 0 133 c0 74 3 137 7 140 3
4 102 7 220 7 l213 0 0 -45z m1783 -452 c-71 -187 -67 -131 -71 -933 -3 -806
-2 -830 62 -1023 l32 -97 -458 0 -459 0 -24 -25 c-32 -31 -32 -69 0 -100 l24
-25 481 0 480 0 0 -128 c0 -86 -4 -132 -12 -140 -9 -9 -72 -12 -220 -12 l-208
0 0 49 c0 42 -4 53 -26 70 -34 27 -57 26 -89 -2 -20 -17 -28 -35 -32 -70 l-6
-47 -238 0 -239 0 0 44 c0 60 -25 90 -75 90 -50 0 -75 -30 -75 -90 l0 -44
-239 0 -238 0 -6 47 c-4 35 -12 53 -32 70 -32 28 -55 29 -89 2 -22 -17 -26
-28 -26 -70 l0 -49 -208 0 c-148 0 -211 3 -220 12 -8 8 -12 54 -12 140 l0 128
514 0 c504 0 514 0 540 21 33 26 35 73 4 106 l-21 23 -497 0 -496 0 32 97 c64
193 65 217 62 1023 -4 802 0 746 -71 933 l-26 67 1104 0 1104 0 -26 -67z
m2497 -1768 c0 -262 16 -245 -230 -245 l-180 0 0 74 c0 115 -22 156 -84 156
-52 0 -66 -30 -66 -135 l0 -95 -250 0 -250 0 0 92 c0 80 -3 95 -22 115 -29 31
-72 30 -103 -2 -23 -22 -25 -32 -25 -115 l0 -90 -244 0 -244 0 -4 96 c-3 86
-5 98 -27 115 -31 25 -69 24 -98 -3 -21 -19 -23 -30 -23 -115 l0 -93 -239 0
-239 0 -21 58 c-34 92 -61 210 -68 299 l-6 83 1212 0 1211 0 0 -195z"/>
<path d="M2770 3223 c-33 -12 -50 -37 -50 -73 0 -44 24 -70 66 -70 47 0 74 25
74 69 0 51 -47 90 -90 74z"/>
<path d="M3036 2949 c-53 -41 -18 -129 51 -129 32 0 73 42 73 75 0 33 -41 75
-73 75 -13 0 -36 -9 -51 -21z"/>
<path d="M4005 2735 c-14 -13 -25 -36 -25 -50 0 -14 11 -37 25 -50 13 -14 36
-25 50 -25 14 0 37 11 50 25 14 13 25 36 25 50 0 14 -11 37 -25 50 -13 14 -36
25 -50 25 -14 0 -37 -11 -50 -25z"/>
<path d="M3700 2330 c-11 -11 -20 -33 -20 -49 0 -71 80 -101 127 -47 28 33 29
56 2 90 -26 33 -79 36 -109 6z"/>
<path d="M1115 2336 c-168 -41 -327 -167 -407 -323 -27 -52 -37 -63 -53 -59
-11 3 -48 8 -83 12 -57 6 -65 5 -87 -16 l-25 -23 0 -233 0 -233 26 -20 c29
-23 123 -55 211 -72 58 -11 69 -17 130 -78 147 -144 350 -206 548 -167 188 37
352 160 435 329 32 64 48 86 59 83 9 -3 43 -7 76 -11 52 -6 64 -4 88 15 l27
21 0 240 c0 143 -4 248 -10 259 -14 26 -66 39 -190 47 l-105 6 -63 63 c-73 72
-186 136 -283 159 -76 18 -224 18 -294 1z m286 -156 c72 -22 162 -76 138 -84
-7 -2 -43 -9 -79 -16 -36 -6 -150 -33 -255 -60 -188 -47 -342 -77 -352 -66
-17 17 94 139 170 185 100 62 258 79 378 41z m493 -226 c13 -5 16 -27 16 -138
l0 -131 -143 -1 c-170 0 -251 -15 -477 -85 -91 -28 -203 -60 -250 -71 -107
-26 -256 -27 -357 -3 l-73 17 0 131 0 132 126 -4 c161 -4 239 7 509 75 121 31
258 62 305 69 88 14 316 20 344 9z m-214 -432 c0 -5 -17 -33 -39 -63 -104
-145 -283 -219 -459 -189 -69 11 -195 67 -194 85 1 5 31 15 68 23 37 7 139 36
228 63 241 75 396 107 396 81z"/>
</g>
</svg>
